<svg xmlns="http://www.w3.org/2000/svg" width="410" height="404" viewBox="0 0 410 404" fill="none">
  <path d="M399.641 59.5246L225.774 371.238C214.276 391.535 187.016 391.616 175.406 371.399L10.0895 59.5246C-2.73257 36.2017 18.0685 9.76044 43.2457 15.0546L204.8 48.3941L366.485 15.0546C391.662 9.76044 412.463 36.2017 399.641 59.5246Z" fill="url(#paint0_linear)"/>
  <path d="M292.965 0.0380242L172.448 23.6164C166.941 24.7093 162.898 29.236 162.372 34.8614L154.952 111.019C154.748 113.308 156.861 115.112 159.109 114.546L192.665 106.574C196.853 105.587 200.633 109.365 199.646 113.553L169.467 244.109C168.438 248.557 172.92 252.365 177.156 250.731L197.202 243.004C201.397 241.385 205.676 245.203 204.628 249.651L181.606 353.438C180.456 358.442 186.044 362.124 189.895 358.748L192.447 356.416C193.861 355.127 194.922 353.493 195.501 351.672L318.102 52.5602C319.537 48.0172 315.343 43.8232 310.8 45.2576L275.756 56.3152C271.548 57.6432 267.686 53.8181 268.614 49.4863L303.512 12.4931C304.532 7.89129 300.573 3.54168 296.055 4.49483L292.965 0.0380242Z" fill="url(#paint1_linear)"/>
  <defs>
    <linearGradient id="paint0_linear" x1="205" y1="0" x2="205" y2="404" gradientUnits="userSpaceOnUse">
      <stop stop-color="#41D1FF"/>
      <stop offset="1" stop-color="#BD34FE"/>
    </linearGradient>
    <linearGradient id="paint1_linear" x1="179" y1="0" x2="179" y2="360" gradientUnits="userSpaceOnUse">
      <stop stop-color="#FFEA83"/>
      <stop offset="0.083" stop-color="#FFDD35"/>
      <stop offset="1" stop-color="#FFA800"/>
    </linearGradient>
  </defs>
</svg>
